# xmcd
#
# Track frame offsets:
#	150
#	14973
#	26636
#	43048
#	57214
#	73929
#	85880
#	101396
#	116366
#	128898
#	141485
#	154525
#
# Disc length: 2243 seconds
#
# Revision: 2
# Processed by: cddbd v1.5.1PL0 Copyright (c) Steve Scherf et al.
# Submitted via: EasyCDDAExtractor 8.0.1.1
#
DISCID=a708c10c
DTITLE=The Rolling Stones - Flowers
DYEAR=1967
DGENRE=Rock/Blues
TTITLE0=Ruby Tuesday
TTITLE1=Have You Seen Your Mother, Baby, Standing In The Shadow
TTITLE2=Let's Spend The Night Together
TTITLE3=Lady Jane
TTITLE4=Out Of Time
TTITLE5=My Girl
TTITLE6=Backstreet Girl
TTITLE7=Please Go Home
TTITLE8=Mother's Little Helper
TTITLE9=Take It Or Leave It
TTITLE10=Ride On, Baby
TTITLE11=Sittin' On A Fence
EXTD=
EXTT0=
EXTT1=
EXTT2=
EXTT3=
EXTT4=
EXTT5=
EXTT6=
EXTT7=
EXTT8=
EXTT9=
EXTT10=
EXTT11=
PLAYORDER=
